<svg id="Capa_1" enable-background="new 0 0 497 497" height="512" viewBox="0 0 497 497" width="512" xmlns="http://www.w3.org/2000/svg"><g><path d="m71.75 331.333-15 15v135.667l15 15h22.5c4.142 0 7.5-3.358 7.5-7.5v-150.667c0-4.142-3.358-7.5-7.5-7.5z" fill="#793bcc"/><path d="m0 338.833v150.667c0 4.142 3.358 7.5 7.5 7.5h64.25v-165.667h-64.25c-4.142 0-7.5 3.358-7.5 7.5z" fill="#9255e3"/><path d="m203.5 165.667-15 15v301.333l15 15h22.5c4.142 0 7.5-3.358 7.5-7.5v-316.333c0-4.142-3.358-7.5-7.5-7.5z" fill="#f9b348"/><path d="m131.75 173.167v316.333c0 4.142 3.358 7.5 7.5 7.5h64.25v-331.333h-64.25c-4.142 0-7.5 3.358-7.5 7.5z" fill="#f3da49"/><path d="m467 165.667-15 15v301.333l15 15h22.5c4.142 0 7.5-3.358 7.5-7.5v-316.333c0-4.142-3.358-7.5-7.5-7.5z" fill="#61ce5b"/><path d="m395.25 173.167v316.333c0 4.142 3.358 7.5 7.5 7.5h64.25v-331.333h-64.25c-4.142 0-7.5 3.358-7.5 7.5z" fill="#94e368"/><path d="m335.25 0-15 15v467l15 15h22.5c4.142 0 7.5-3.358 7.5-7.5v-482c0-4.142-3.358-7.5-7.5-7.5z" fill="#28abfa"/><path d="m263.5 7.5v482c0 4.142 3.358 7.5 7.5 7.5h64.25v-497h-64.25c-4.142 0-7.5 3.358-7.5 7.5z" fill="#14cfff"/></g></svg>