<svg viewBox="0 0 512 512" xmlns="http://www.w3.org/2000/svg"><path d="m512 256c0 141.386719-114.613281 256-256 256s-256-114.613281-256-256 114.613281-256 256-256 256 114.613281 256 256zm0 0" fill="#ffec97"/><path d="m512 256c0-19.835938-2.257812-39.144531-6.527344-57.683594l-128.316406-128.316406h-242.3125v372l63.472656 63.472656c18.539063 4.269532 37.847656 6.527344 57.683594 6.527344 141.386719 0 256-114.613281 256-256zm0 0" fill="#ffd400"/><path d="m134.84375 70h242.3125v372h-242.3125zm0 0" fill="#9331b2"/><path d="m256 70h121.160156v372h-121.160156zm0 0" fill="#681f7b"/><path d="m155.0625 103.523438h201.875v279.847656h-201.875zm0 0" fill="#54fbff"/><path d="m256 103.519531h100.941406v279.851563h-100.941406zm0 0" fill="#00d9e0"/><path d="m222.808594 82.46875h66.382812v9.601562h-66.382812zm0 0" fill="#681f7b"/><path d="m256 82.46875h33.191406v9.601562h-33.191406zm0 0" fill="#451152"/><path d="m313.957031 87.269531c0 4.1875-3.394531 7.582031-7.582031 7.582031s-7.582031-3.394531-7.582031-7.582031 3.394531-7.582031 7.582031-7.582031 7.582031 3.394531 7.582031 7.582031zm0 0" fill="#451152"/><path d="m275.613281 425.152344h-39.226562c-7.746094 0-14.082031-6.335938-14.082031-14.082032v-.308593c0-7.746094 6.335937-14.082031 14.082031-14.082031h39.226562c7.746094 0 14.082031 6.335937 14.082031 14.082031v.308593c0 7.746094-6.335937 14.082032-14.082031 14.082032zm0 0" fill="#ca80de"/><path d="m289.699219 410.761719v.308593c0 7.738282-6.339844 14.078126-14.089844 14.078126h-19.609375v-28.46875h19.609375c7.75 0 14.089844 6.339843 14.089844 14.082031zm0 0" fill="#b857cf"/></svg>